<svg width="18" height="18" viewBox="0 0 18 18" fill="none" xmlns="http://www.w3.org/2000/svg">
<g clip-path="url(#clip0_314_436)">
<path d="M17.7938 9.49763C17.7936 9.49784 17.7934 9.49809 17.7931 9.4983L14.1192 13.1546C13.8439 13.4285 13.3988 13.4274 13.1248 13.1522C12.8508 12.8769 12.8519 12.4317 13.1271 12.1578L15.5938 9.70305H0.703125C0.314789 9.70305 0 9.38826 0 8.99992C0 8.61159 0.314789 8.2968 0.703125 8.2968H15.5938L13.1272 5.84205C12.8519 5.56811 12.8509 5.12293 13.1248 4.84769C13.3988 4.57238 13.844 4.57143 14.1192 4.8453L17.7932 8.50155C17.7934 8.50176 17.7936 8.50201 17.7938 8.50222C18.0692 8.77707 18.0683 9.22369 17.7938 9.49763Z" fill="#1A2F3F"/>
</g>
<defs>
<clipPath id="clip0_314_436">
<rect width="18" height="18" fill="white" transform="matrix(1 0 0 -1 0 18)"/>
</clipPath>
</defs>
</svg>
