<svg width="58" height="57" viewBox="0 0 58 57" fill="none" xmlns="http://www.w3.org/2000/svg">
<g filter="url(#filter0_d_340_110)">
<ellipse cx="28.8497" cy="24.5" rx="24.5255" ry="24.5" fill="white"/>
</g>
<path d="M35.544 13.7697C33.7562 11.9837 31.379 11 28.8508 11C26.3221 11 23.9454 11.9837 22.1575 13.7697C18.8489 17.0743 18.4378 23.2922 21.2671 27.0594L28.8508 38L36.4231 27.0747C39.2638 23.2922 38.8526 17.0743 35.544 13.7697ZM28.9381 23.8203C27.0333 23.8203 25.4829 22.2715 25.4829 20.3687C25.4829 18.4658 27.0333 16.9171 28.9381 16.9171C30.843 16.9171 32.3934 18.4658 32.3934 20.3687C32.3934 22.2715 30.843 23.8203 28.9381 23.8203Z" fill="#337D5A"/>
<defs>
<filter id="filter0_d_340_110" x="0.324219" y="0" width="57.0508" height="57" filterUnits="userSpaceOnUse" color-interpolation-filters="sRGB">
<feFlood flood-opacity="0" result="BackgroundImageFix"/>
<feColorMatrix in="SourceAlpha" type="matrix" values="0 0 0 0 0 0 0 0 0 0 0 0 0 0 0 0 0 0 127 0" result="hardAlpha"/>
<feOffset dy="4"/>
<feGaussianBlur stdDeviation="2"/>
<feColorMatrix type="matrix" values="0 0 0 0 0 0 0 0 0 0 0 0 0 0 0 0 0 0 0.05 0"/>
<feBlend mode="normal" in2="BackgroundImageFix" result="effect1_dropShadow_340_110"/>
<feBlend mode="normal" in="SourceGraphic" in2="effect1_dropShadow_340_110" result="shape"/>
</filter>
</defs>
</svg>
